<?xml version="1.0" encoding="UTF-8"?>
<svg width="1181px" height="1190px" viewBox="0 0 1181 1190" version="1.1" xmlns="http://www.w3.org/2000/svg" xmlns:xlink="http://www.w3.org/1999/xlink">
    <title>Group 16</title>
    <defs>
        <linearGradient x1="50%" y1="0%" x2="50%" y2="100%" id="linearGradient-1">
            <stop stop-color="#C3E9B3" stop-opacity="0" offset="32.54036%"></stop>
            <stop stop-color="#C3E9B3" offset="100%"></stop>
        </linearGradient>
        <linearGradient x1="50%" y1="0%" x2="50%" y2="100%" id="linearGradient-2">
            <stop stop-color="#C3E9B3" stop-opacity="0" offset="32.54036%"></stop>
            <stop stop-color="#C3E9B3" offset="100%"></stop>
        </linearGradient>
        <linearGradient x1="50%" y1="0%" x2="50%" y2="100%" id="linearGradient-3">
            <stop stop-color="#C3E9B3" stop-opacity="0" offset="32.54036%"></stop>
            <stop stop-color="#C3E9B3" offset="100%"></stop>
        </linearGradient>
        <linearGradient x1="50%" y1="0%" x2="50%" y2="100%" id="linearGradient-4">
            <stop stop-color="#C3E9B3" stop-opacity="0" offset="32.54036%"></stop>
            <stop stop-color="#C3E9B3" offset="100%"></stop>
        </linearGradient>
        <linearGradient x1="50%" y1="0%" x2="50%" y2="100%" id="linearGradient-5">
            <stop stop-color="#C3E9B3" stop-opacity="0" offset="32.54036%"></stop>
            <stop stop-color="#C3E9B3" offset="100%"></stop>
        </linearGradient>
        <linearGradient x1="50%" y1="0%" x2="50%" y2="100%" id="linearGradient-6">
            <stop stop-color="#C3E9B3" stop-opacity="0" offset="32.54036%"></stop>
            <stop stop-color="#C3E9B3" offset="100%"></stop>
        </linearGradient>
        <linearGradient x1="50%" y1="0%" x2="50%" y2="100%" id="linearGradient-7">
            <stop stop-color="#C3E9B3" stop-opacity="0" offset="32.54036%"></stop>
            <stop stop-color="#C3E9B3" offset="100%"></stop>
        </linearGradient>
        <linearGradient x1="50%" y1="0%" x2="50%" y2="100%" id="linearGradient-8">
            <stop stop-color="#C3E9B3" stop-opacity="0" offset="32.54036%"></stop>
            <stop stop-color="#C3E9B3" offset="100%"></stop>
        </linearGradient>
        <linearGradient x1="50%" y1="0%" x2="50%" y2="100%" id="linearGradient-9">
            <stop stop-color="#C3E9B3" stop-opacity="0" offset="32.54036%"></stop>
            <stop stop-color="#C3E9B3" offset="100%"></stop>
        </linearGradient>
        <linearGradient x1="50%" y1="0%" x2="50%" y2="100%" id="linearGradient-10">
            <stop stop-color="#C3E9B3" stop-opacity="0" offset="32.54036%"></stop>
            <stop stop-color="#C3E9B3" offset="100%"></stop>
        </linearGradient>
        <linearGradient x1="50%" y1="0%" x2="50%" y2="100%" id="linearGradient-11">
            <stop stop-color="#C3E9B3" stop-opacity="0" offset="32.54036%"></stop>
            <stop stop-color="#C3E9B3" offset="100%"></stop>
        </linearGradient>
        <linearGradient x1="50%" y1="0%" x2="50%" y2="100%" id="linearGradient-12">
            <stop stop-color="#C3E9B3" stop-opacity="0" offset="32.54036%"></stop>
            <stop stop-color="#C3E9B3" offset="100%"></stop>
        </linearGradient>
        <linearGradient x1="50%" y1="32.54036%" x2="50%" y2="100%" id="linearGradient-13">
            <stop stop-color="#C3E9B3" stop-opacity="0" offset="0%"></stop>
            <stop stop-color="#C3E9B3" offset="100%"></stop>
        </linearGradient>
        <linearGradient x1="50%" y1="0%" x2="50%" y2="100%" id="linearGradient-14">
            <stop stop-color="#C3E9B3" stop-opacity="0" offset="32.54036%"></stop>
            <stop stop-color="#C3E9B3" offset="100%"></stop>
        </linearGradient>
        <linearGradient x1="50%" y1="0%" x2="50%" y2="100%" id="linearGradient-15">
            <stop stop-color="#C3E9B3" stop-opacity="0" offset="32.54036%"></stop>
            <stop stop-color="#C3E9B3" offset="100%"></stop>
        </linearGradient>
        <linearGradient x1="50%" y1="32.54036%" x2="50%" y2="100%" id="linearGradient-16">
            <stop stop-color="#C3E9B3" stop-opacity="0" offset="0%"></stop>
            <stop stop-color="#C3E9B3" offset="100%"></stop>
        </linearGradient>
        <linearGradient x1="50%" y1="0%" x2="50%" y2="100%" id="linearGradient-17">
            <stop stop-color="#C3E9B3" stop-opacity="0" offset="32.54036%"></stop>
            <stop stop-color="#C3E9B3" offset="100%"></stop>
        </linearGradient>
        <linearGradient x1="50%" y1="0%" x2="50%" y2="100%" id="linearGradient-18">
            <stop stop-color="#C3E9B3" stop-opacity="0" offset="32.54036%"></stop>
            <stop stop-color="#C3E9B3" offset="100%"></stop>
        </linearGradient>
        <linearGradient x1="50%" y1="0%" x2="50%" y2="100%" id="linearGradient-19">
            <stop stop-color="#C3E9B3" stop-opacity="0" offset="32.54036%"></stop>
            <stop stop-color="#C3E9B3" offset="100%"></stop>
        </linearGradient>
        <linearGradient x1="50%" y1="0%" x2="50%" y2="100%" id="linearGradient-20">
            <stop stop-color="#C3E9B3" stop-opacity="0" offset="32.54036%"></stop>
            <stop stop-color="#C3E9B3" offset="100%"></stop>
        </linearGradient>
        <linearGradient x1="50%" y1="0%" x2="50%" y2="100%" id="linearGradient-21">
            <stop stop-color="#C3E9B3" stop-opacity="0" offset="32.54036%"></stop>
            <stop stop-color="#C3E9B3" offset="100%"></stop>
        </linearGradient>
        <linearGradient x1="50%" y1="0%" x2="50%" y2="100%" id="linearGradient-22">
            <stop stop-color="#C3E9B3" stop-opacity="0" offset="32.54036%"></stop>
            <stop stop-color="#C3E9B3" offset="100%"></stop>
        </linearGradient>
        <linearGradient x1="50%" y1="0%" x2="50%" y2="100%" id="linearGradient-23">
            <stop stop-color="#C3E9B3" stop-opacity="0" offset="32.54036%"></stop>
            <stop stop-color="#C3E9B3" offset="100%"></stop>
        </linearGradient>
        <linearGradient x1="50%" y1="0%" x2="50%" y2="100%" id="linearGradient-24">
            <stop stop-color="#C3E9B3" stop-opacity="0" offset="32.54036%"></stop>
            <stop stop-color="#C3E9B3" offset="100%"></stop>
        </linearGradient>
        <linearGradient x1="50%" y1="0%" x2="50%" y2="100%" id="linearGradient-25">
            <stop stop-color="#C3E9B3" stop-opacity="0" offset="32.54036%"></stop>
            <stop stop-color="#C3E9B3" offset="100%"></stop>
        </linearGradient>
    </defs>
    <g id="Tickets-1.0" stroke="none" stroke-width="1" fill="none" fill-rule="evenodd" stroke-dasharray="0" stroke-linecap="round">
        <g id="Default-Image" transform="translate(39.000000, 785.000000)">
            <g id="Group-16" transform="translate(-37.635480, -783.436829)">
                <path d="M577.256213,150.107631 C592.148323,151.700644 607.00918,152.871978 621.823157,153.621631 C636.652761,153.215569 651.466738,152.622093 666.233836,151.981764 C681.047813,150.779195 695.877416,150.029542 710.691394,149.967071 C725.614757,150.076395 740.569373,151.325818 755.555242,153.855898 C770.68175,157.120014 785.886392,161.883436 801.122286,168.11493 C816.514446,175.22102 831.969112,183.748328 847.392525,193.540675 C862.94095,204.004588 878.426869,215.499273 893.740896,227.837319 C909.054923,240.472102 924.056419,253.684744 938.604745,267.28783 C952.903045,280.85968 966.545031,294.650179 979.343182,308.518767 C991.594404,322.153089 1002.76739,335.803028 1012.64338,349.437349 C1021.67553,362.759315 1029.23878,376.096899 1035.16125,389.4501 C1040.09924,402.506564 1043.33394,415.672352 1044.83409,428.947464 C1045.4279,442.019545 1044.44342,455.294658 1041.97443,468.835273 C1039.02101,482.21971 1034.9581,495.947738 1030.00448,509.988121 C1025.25401,523.981652 1020.1285,538.365626 1014.8936,553.140046 C1010.61192,567.898847 1006.72091,583.079329 1003.40808,598.681491 C1001.5954,614.268034 1000.61093,629.932667 1000.40778,645.581682 C1001.67353,661.230697 1003.48621,676.864094 1005.70519,692.419402 C1008.87738,707.91224 1012.00269,723.280134 1014.8311,738.398145 C1017.94078,753.391213 1020.31602,768.04069 1021.72241,782.237252 C1022.80064,796.183929 1022.58187,809.521512 1020.97233,822.12506 C1018.6596,834.338164 1014.79984,845.676672 1009.43993,856.000024 C1003.25182,865.823607 995.579176,874.585181 986.562652,882.175422 C976.796053,889.328365 965.826209,895.388063 953.840639,900.416988 C941.308139,905.274118 927.947432,909.365976 913.899156,912.879976 C899.553976,916.753186 884.708746,920.501453 869.504104,924.359044 C854.190077,929.231791 838.641652,934.682396 822.936961,940.867037 C807.247897,948.535367 791.480699,957.125145 775.713502,966.620755 C759.993185,977.412641 744.288494,988.782384 728.630682,1000.41763 C713.035377,1012.4277 697.471325,1023.89115 681.985406,1034.27698 C666.546367,1043.71011 651.154207,1051.14418 635.824553,1056.14187 C620.510526,1059.12486 605.243379,1059.23419 590.054364,1056.39175 C574.86535,1051.56586 560.082626,1044.38168 545.721819,1035.37022 C531.329759,1025.70281 517.359616,1015.2389 503.81139,1004.58758 C490.216284,994.748376 477.043096,985.50265 464.291824,977.178374 C451.493673,970.509582 439.086186,964.949653 427.116242,960.436115 C415.052539,957.499972 403.3795,955.251012 392.112752,953.423732 C380.736617,952.424194 369.719894,951.237242 359.078208,949.534905 C348.264629,947.816949 337.779209,945.099455 327.621946,941.179393 C317.277165,936.650237 307.213661,930.699863 297.462689,923.343888 C287.477318,915.160172 277.773226,905.586473 268.381664,894.763352 C258.755704,883.237431 249.442276,870.633883 240.488258,857.140122 C231.346721,843.177827 222.580222,828.559585 214.266893,813.441575 C205.859805,798.089298 197.952766,782.424665 190.608284,766.557001 C183.295055,750.611248 176.622514,734.587407 170.668796,718.547947 C164.855716,702.508488 159.839591,686.500264 155.682926,670.585747 C151.776287,654.686847 148.775988,638.881655 146.775788,623.217022 C145.056867,607.552389 144.353672,592.012699 144.713083,576.629186 C145.353771,561.245673 147.010187,546.36193 149.619822,532.024808 C152.448229,517.672069 156.151723,503.819098 160.652172,490.51275 C165.24638,477.175167 170.575036,464.35297 176.544382,452.04616 C182.482474,439.676879 188.998748,427.791748 196.015073,416.359534 C202.875132,404.817995 210.188361,393.651283 217.892255,382.828162 C225.361749,371.755156 233.206282,360.932035 241.378971,350.280709 C249.28601,339.238939 257.536833,328.25964 266.100187,317.280341 C274.397889,305.816891 283.055002,294.259735 292.0559,282.608871 C300.838025,270.458239 310.010815,258.245135 319.574269,246.032032 C328.981457,233.506573 338.810562,221.168527 349.061584,209.18969 C359.234473,197.273325 369.844906,186.028523 380.90851,175.689553 C391.925233,165.912824 403.410753,157.35428 415.318191,150.232573 C427.225628,144.06355 439.570609,139.487541 452.337507,136.582634 C465.104405,134.614794 478.261967,134.161878 491.810193,135.13018 C505.358419,136.535781 519.266056,138.878447 533.517477,141.939532 C547.768898,144.594555 562.348477,147.390137 577.240587,150.092013" id="Path" stroke="url(#linearGradient-1)" opacity="0.23" transform="translate(594.811979, 596.546227) rotate(377.000000) translate(-594.811979, -596.546227) "></path>
                <path d="M578.672319,165.029526 C593.063976,166.60555 607.486922,167.806738 621.89428,168.617477 C636.317369,168.350568 650.740476,167.896243 665.179215,167.379445 C679.664891,166.269155 694.166156,165.549316 708.698615,165.422959 C723.309198,165.374685 737.982189,166.32596 752.670694,168.43297 C767.468524,171.149072 782.328725,175.239558 797.188794,180.688813 C812.173793,186.965813 827.143035,194.585967 842.04965,203.455571 C857.003076,213.027983 871.815764,223.646817 886.393971,235.155904 C900.87838,247.071068 915.003323,259.626608 928.596923,272.681977 C941.893617,285.815465 954.487098,299.245765 966.189863,312.863568 C977.34572,326.356479 987.407728,339.943205 996.219631,353.54567 C1004.25024,366.929559 1010.85886,380.329204 1015.95172,393.744614 C1020.15391,406.92584 1022.79347,420.16969 1023.83913,433.491786 C1024.13476,446.626537 1022.99274,459.917609 1020.53811,473.380607 C1017.69283,486.718698 1013.86307,500.306774 1009.25197,514.144815 C1004.85964,527.904744 1000.13913,541.992684 995.324836,556.392994 C991.401241,570.761982 987.790139,585.474536 984.679045,600.515021 C982.943065,615.555372 981.894644,630.56442 981.565041,645.495308 C982.548045,660.426069 984.015473,675.263074 985.842325,689.912628 C988.591131,704.515238 991.293082,718.883581 993.76067,732.923969 C996.556424,746.823762 998.71154,760.317548 1000.03852,773.264782 C1001.14675,785.977768 1001.09869,798.050525 999.831864,809.358117 C997.986898,820.306549 994.751275,830.396124 990.125008,839.517515 C984.779967,848.264143 978.05991,856.011349 970.058597,862.743506 C961.38538,869.194603 951.540282,874.72435 940.663927,879.442058 C929.271905,884.159816 917.020492,888.315408 904.050305,892.111855 C890.751917,896.408111 876.906608,900.720038 862.623741,905.250661 C848.200134,910.843325 833.448319,917.013888 818.508919,923.9029 C803.522511,932.119451 788.411013,941.148152 773.23694,950.910908 C758.094013,961.751307 742.904169,972.997779 727.745571,984.306721 C712.633831,995.83431 697.53778,1006.70594 682.504346,1016.43745 C667.502259,1025.20063 652.547238,1032.02717 637.670572,1036.55785 C622.809714,1039.22998 607.995995,1039.2158 593.260673,1036.46846 C578.541156,1031.8938 564.21251,1025.11696 550.30594,1016.62209 C536.383811,1007.44003 522.868045,997.445792 509.758592,987.139153 C496.602197,977.488477 483.852041,968.290684 471.508098,959.811282 C459.101508,952.799983 447.069856,946.741349 435.444394,941.650994 C423.725029,938.044364 412.380629,935.124891 401.395586,932.689542 C390.285443,931.175671 379.503457,929.614914 369.080905,927.741761 C358.486445,926.071659 348.188962,923.605007 338.204097,920.185625 C328.01613,916.360192 318.109554,911.316525 308.484373,905.023386 C298.640488,898.07431 289.078002,889.828909 279.812531,880.396507 C270.343982,870.308167 261.172436,859.15777 252.360385,847.070255 C243.392117,834.514215 234.798953,821.208471 226.643381,807.324817 C218.409705,793.160045 210.676113,778.55792 203.505094,763.674615 C196.380966,748.666361 189.881908,733.470629 184.086041,718.196739 C178.430813,702.8916 173.572529,687.555146 169.542435,672.249849 C165.76236,656.960145 162.872979,641.717208 160.936791,626.583506 C159.313127,611.465391 158.658282,596.456508 159.034757,581.603706 C159.692507,566.735258 161.350291,552.366491 163.91435,538.497413 C166.697179,524.612696 170.339405,511.227673 174.778525,498.326732 C179.295781,485.378929 184.531801,472.899598 190.392828,460.87313 C196.238236,448.768573 202.630525,437.070032 209.522817,425.761894 C216.290115,414.281969 223.494919,403.114363 231.074729,392.212228 C238.451422,381.044605 246.171878,370.033129 254.220475,359.146566 C262.019088,347.869576 270.145851,336.62379 278.553888,325.362358 C286.727575,313.648026 295.229419,301.886808 304.028168,290.063089 C312.63944,277.848937 321.578862,265.650371 330.87768,253.545479 C340.035878,241.268801 349.569079,229.273212 359.477267,217.73051 C369.29168,206.375234 379.527929,195.769583 390.170367,186.132212 C400.750243,177.088332 411.767533,169.293855 423.190971,162.889344 C434.583069,157.390683 446.412554,153.422549 458.632546,151.000563 C470.83683,149.421954 483.447259,149.264548 496.448222,150.372167 C509.417898,151.839003 522.778145,154.180412 536.497737,157.146509 C550.201742,159.706537 564.249511,162.407095 578.656694,165.013909" id="Path" stroke="url(#linearGradient-2)" opacity="0.45" transform="translate(591.408082, 594.101531) rotate(387.120000) translate(-591.408082, -594.101531) "></path>
                <path d="M581.493324,179.182306 C595.415369,180.726031 609.368723,181.957374 623.353392,182.829478 C637.35387,182.701974 651.401261,182.371417 665.44866,181.994004 C679.558673,181.007444 693.715506,180.333253 707.887869,180.17448 C722.122738,180.000077 736.419946,180.715936 750.716969,182.447019 C765.107654,184.677887 779.529365,188.142637 793.903966,192.88814 C808.356563,198.352095 822.746422,205.112424 837.011059,213.059807 C851.275572,221.694418 865.336756,231.406766 879.085265,242.025063 C892.708685,253.111947 905.878836,264.901762 918.470738,277.269578 C930.750096,289.824878 942.279361,302.755166 952.902296,315.966759 C962.993969,329.147211 972.00745,342.499666 979.802128,355.930438 C986.893683,369.220769 992.641437,382.558201 996.967263,395.92713 C1000.51185,409.124395 1002.61887,422.368778 1003.32009,435.660274 C1003.34845,448.811324 1002.11162,462.056317 999.687226,475.410858 C996.997219,488.671735 993.41653,502.088962 989.132659,515.693744 C985.11443,529.251621 980.799277,543.028216 976.374705,557.023494 C972.778288,571.003002 969.447459,585.232363 966.522851,599.695933 C964.848283,614.159274 963.783129,628.513173 963.311777,642.695156 C964.043588,656.87692 965.197323,670.871181 966.663616,684.599864 C968.98932,698.281535 971.299456,711.650832 973.406534,724.614076 C975.873025,737.436685 977.792709,749.790829 978.993724,761.567208 C980.069775,773.124946 980.161542,784.011253 979.144038,794.13244 C976.313202,808.486661 963.464661,832.463907 953.462584,842.071311 C945.789371,848.039104 937.006881,853.273013 927.208848,857.882355 C916.926395,862.647973 905.768979,867.054517 893.877204,871.242532 C881.641557,876.039744 868.812117,880.962015 855.49823,886.196751 C842.012275,892.462361 828.151204,899.290317 814.024381,906.774313 C799.834838,915.445351 785.442042,924.788036 770.955387,934.708634 C756.452947,945.50389 741.887965,956.517821 727.291749,967.438045 C712.72677,978.436357 698.161928,988.684965 683.628553,997.746537 C669.126603,1005.85535 654.656241,1012.12114 640.248779,1016.20029 C625.872879,1018.57697 611.528686,1018.45463 597.263082,1015.80203 C582.997783,1011.47822 569.13912,1005.10827 555.687023,997.08264 C542.203794,988.40103 529.111357,978.875931 516.409629,968.960291 C503.676559,959.544459 491.318444,950.440935 479.335241,941.884002 C467.289305,934.592205 455.618228,928.143757 444.290758,922.538663 C432.884913,918.292421 421.822703,914.733345 411.088535,911.689631 C400.229189,909.598688 389.682336,907.601401 379.448019,905.463488 C369.041762,903.653601 358.916869,901.265767 349.088995,898.143793 C339.073651,894.818809 329.308504,890.462936 319.82481,885.044932 C310.138075,879.127162 300.717188,872.037932 291.593387,863.83971 C282.282181,855.094863 273.283678,845.287879 264.613476,834.574943 C255.818355,823.393465 247.414015,811.430975 239.43168,798.828035 C231.402526,785.912727 223.873482,772.481907 216.891396,758.691753 C209.956218,744.729785 203.646109,730.502182 198.023554,716.102646 C192.557265,701.640607 187.856643,687.084715 183.968553,672.497437 C180.330471,657.910114 177.551792,643.322634 175.710632,628.797458 C174.150732,614.272231 173.559598,599.824921 173.937226,585.486767 C174.627362,571.164174 176.254948,557.278738 178.78873,543.846083 C181.525648,530.397771 185.10626,517.402252 189.436819,504.828305 C193.876766,492.207481 199.004163,479.977002 204.740882,468.152502 C210.47762,456.21867 216.761188,444.628353 223.513468,433.334707 C230.172023,421.884891 237.236801,410.653664 244.692183,399.609792 C251.960104,388.316053 259.571766,377.131583 267.480302,366.009534 C275.185769,354.543908 283.172495,343.078231 291.456105,331.612499 C299.505401,319.771958 307.851588,307.900126 316.479034,296.028242 C324.919022,283.890872 333.671506,271.83154 342.752089,259.975192 C351.660802,248.056401 360.944459,236.512393 370.55615,225.530603 C380.058413,214.814353 389.951163,204.92583 400.218748,196.005605 C410.423712,187.741384 421.019092,180.695359 432.004861,175.008102 C442.943599,170.16427 454.288339,166.757296 466.023451,164.802803 C477.727178,163.582399 489.821307,163.658288 502.30586,164.905518 C514.759113,166.418273 527.602861,168.711899 540.805891,171.583356 C553.993369,174.048726 567.555836,176.638978 581.477702,179.16669" id="Path" stroke="url(#linearGradient-3)" opacity="0.7" transform="translate(588.573457, 590.909890) rotate(397.240000) translate(-588.573457, -590.909890) "></path>
                <path d="M585.690673,192.662441 C599.127205,194.205531 612.641932,195.451821 626.172359,196.385706 C639.734265,196.382383 653.34309,196.191608 666.983179,195.938345 C680.670286,195.09151 694.404205,194.494584 708.153645,194.319395 C721.949973,194.081714 735.79299,194.593782 749.620161,196.011816 C763.509733,197.820335 777.383409,200.737879 791.194305,204.811321 C805.020668,209.525179 818.75299,215.441802 832.297538,222.514352 C845.779434,230.211719 859.011078,238.986929 871.867512,248.683812 C884.551964,258.849337 896.751867,269.811602 908.342272,281.383198 C919.573253,293.220422 930.054155,305.51081 939.62876,318.160681 C948.687746,330.873158 956.699846,343.820193 963.571333,356.923706 C969.770993,369.949285 974.736305,383.084506 978.389164,396.266909 C981.354579,409.34014 983.038785,422.476165 983.410542,435.643751 C983.266726,448.686504 981.982316,461.807637 979.635433,475.00713 C977.085454,488.128572 973.76986,501.343922 969.829263,514.684386 C966.169915,527.977921 962.229295,541.412104 958.17927,554.986895 C954.910461,568.561495 951.84473,582.292244 949.107079,596.147874 C947.509999,610.018844 946.412946,623.686631 945.815934,637.104376 C946.328247,650.521848 947.184361,663.673696 948.321793,676.497455 C950.25608,689.258538 952.174835,701.644745 953.937457,713.578009 C956.075094,725.386221 957.744128,736.679087 958.788338,747.362926 C959.862633,762.795243 956.778027,789.787396 952.228549,801.222366 C945.741912,811.611269 926.332289,828.844909 913.643564,836.111328 C904.424001,841.080754 894.329529,845.831714 883.485105,850.520377 C872.31241,855.865162 860.514693,861.413161 848.185661,867.32055 C835.668903,874.180806 822.74578,881.587863 809.494404,889.572941 C796.149033,898.573343 782.553539,908.120508 768.801703,918.073831 C755.034073,928.714439 741.14143,939.433178 727.186351,949.902011 C713.246908,960.323981 699.260791,969.933721 685.290593,978.340716 C671.336249,985.810505 657.382338,991.515232 643.491426,995.173721 C629.6009,997.254588 615.757806,997.05492 601.977788,994.496613 C588.198141,990.423164 574.793948,984.42836 561.765118,976.887083 C548.736449,968.689764 536.051722,959.64888 523.757717,950.1393 C511.416747,941.004612 499.419471,932.04166 487.781454,923.48474 C476.0963,916.005613 464.723463,909.213691 453.694178,903.171445 C442.570841,898.378824 431.759837,894.210928 421.261189,890.574036 C410.637313,887.889995 400.294632,885.377706 390.248814,882.865344 C380.046641,880.806002 370.094557,878.340477 360.423841,875.343803 C350.565644,872.300314 340.957636,868.444523 331.615463,863.682706 C322.101507,858.577291 312.837792,852.440892 303.855557,845.320364 C294.732813,837.746889 285.907173,829.18928 277.409866,819.725629 C268.818908,809.871501 260.618757,799.205036 252.825007,787.851191 C245.015705,776.200569 237.690895,763.987507 230.913044,751.336951 C224.197735,738.498939 218.091863,725.301517 212.673518,711.869627 C207.395811,698.359602 202.868117,684.661953 199.137283,670.886008 C195.640824,657.063147 192.98809,643.193218 191.225943,629.323071 C189.760657,615.452851 189.201574,601.61365 189.611186,587.821071 C190.302037,574.028423 191.914626,560.626049 194.386457,547.613966 C197.077033,534.586209 200.579984,521.917514 204.801563,509.623523 C209.132523,497.282645 214.150872,485.269619 219.747241,473.584472 C225.359261,461.789981 231.502446,450.24528 238.129928,438.93476 C244.648078,427.468068 251.588042,416.173092 258.902959,405.002984 C266.046066,393.598619 273.532893,382.256649 281.31657,370.961466 C288.897204,359.369553 296.7747,347.777567 304.917805,336.201136 C312.842239,324.343598 321.047907,312.501611 329.534793,300.737656 C337.818606,288.80193 346.399242,277.022331 355.276667,265.53944 C363.982213,254.103452 373.015755,243.135983 382.377259,232.777615 C391.613679,222.778539 401.193624,213.638479 411.132684,205.498012 C420.977837,198.01361 431.21331,191.700613 441.807817,186.71523 C452.324015,182.495248 463.246116,179.618487 474.527247,178.084961 C485.776973,177.191863 497.417019,177.470171 509.416164,178.810553 C521.384011,180.354002 533.742293,182.600257 546.459804,185.377504 C559.161795,187.733015 572.238734,190.229014 585.675049,192.662445" id="Path" stroke="url(#linearGradient-4)" opacity="0.91" transform="translate(586.445614, 587.079227) rotate(407.360000) translate(-586.445614, -587.079227) "></path>
                <path d="M591.160804,205.663384 C604.127356,207.175069 617.156469,208.436794 630.232524,209.43294 C643.324449,209.538658 656.478909,209.488143 669.649009,209.375139 C682.866142,208.668505 696.130088,208.164937 709.378311,208.020668 C722.689064,207.735788 735.999636,208.10701 749.263117,209.274941 C762.573394,210.708424 775.820902,213.141698 788.974382,216.621638 C802.112087,220.648334 815.093257,225.784199 827.824161,231.998014 C840.492414,238.789842 852.8323,246.612779 864.765732,255.373117 C876.495937,264.602155 887.694743,274.628037 898.268445,285.341437 C908.482738,296.351744 917.946987,307.893391 926.504997,319.841447 C934.594283,331.930226 941.683618,344.331712 947.679298,356.936581 C953.081309,369.541615 957.342807,382.30318 960.385697,395.158812 C962.866177,407.967736 964.174925,420.83947 964.31195,433.742773 C964.027171,446.599329 962.726898,459.487409 960.489235,472.438235 C958.126612,485.310988 955.076561,498.26204 951.479692,511.275729 C948.164049,524.242475 944.58279,537.303025 940.907777,550.426086 C937.92017,563.548956 935.120019,576.73426 932.569817,589.981981 C931.035101,603.22942 929.922276,616.211177 929.215732,628.880392 C929.524673,641.549325 930.114922,653.874507 930.939622,665.809087 C932.514231,677.696595 934.073335,689.162327 935.476345,700.143837 C937.28558,711.015884 938.688767,721.356913 939.560947,731.088851 C940.525654,745.179157 937.972288,769.830557 934.048028,780.360522 C928.452336,790.125499 911.418743,806.9858 900.13695,814.518482 C891.902238,819.800827 882.823918,824.989676 872.995688,830.225599 C862.854818,836.11771 852.073342,842.259942 840.760585,848.777237 C829.228865,856.169396 817.243952,864.030325 804.899575,872.391241 C792.445599,881.611368 779.694677,891.237737 766.740583,901.129726 C753.739482,911.521617 740.582174,921.835443 727.315597,931.821248 C714.049068,941.635218 700.704663,950.590027 687.344965,958.357608 C673.985522,965.203523 660.61092,970.377943 647.252475,973.630917 C633.894423,975.462336 620.568208,975.169226 607.289463,972.704717 C593.995472,968.881143 581.061306,963.261 568.47125,956.172343 C555.881368,948.458826 543.604176,939.901662 531.686454,930.828891 C519.737416,922.006071 508.100823,913.230029 496.792232,904.735083 C485.420893,897.161822 474.361864,890.119604 463.599492,883.717784 C452.758698,878.425111 442.19895,873.725976 431.92028,869.511029 C421.531989,866.233401 411.393595,863.205647 401.520768,860.255928 C391.507188,857.837377 381.743638,855.184435 372.230162,852.140886 C362.544805,849.206736 353.109591,845.632035 343.924547,841.323056 C334.598949,836.826658 325.507936,831.455392 316.714005,825.193619 C307.779555,818.619456 299.142195,811.123544 290.864391,802.799593 C282.492945,794.131995 274.496664,784.68322 266.938018,774.531356 C259.363823,764.113932 252.274106,753.087136 245.7157,741.575927 C239.235465,729.861616 233.349007,717.756604 228.134418,705.338976 C223.076089,692.811954 218.720857,680.034794 215.146812,667.101202 C211.807122,654.12068 209.279856,641.014962 207.611865,627.846519 C206.225084,614.677998 205.728825,601.446744 206.154313,588.215234 C206.845391,574.98365 208.442507,562.064245 210.851926,549.457044 C213.480069,536.83416 216.873653,524.492251 220.985803,512.462572 C225.207326,500.385998 230.084939,488.559186 235.540533,476.966536 C241.011772,465.295774 246.998517,453.796705 253.453896,442.484964 C259.846827,431.017025 266.645917,419.673945 273.804312,408.408874 C280.822153,396.956383 288.168065,385.535044 295.810799,374.160488 C303.266128,362.53604 311.002655,350.958378 319.004766,339.396264 C326.803828,327.66237 334.884084,315.990884 343.214266,304.459922 C351.356992,292.866526 359.765242,281.507378 368.454598,270.523068 C376.987687,259.679395 385.801841,249.366774 394.928265,239.72579 C403.913966,230.506625 413.243131,222.146545 422.884477,214.786154 C432.416284,208.066274 442.307097,202.502283 452.541275,198.156673 C462.712757,194.545289 473.227604,192.152285 484.10143,191.0089 C494.943858,190.412276 506.129699,190.862195 517.69022,192.280542 C529.203833,193.839495 541.092222,196.023203 553.339806,198.675456 C565.571875,200.937176 578.178863,203.308143 591.145181,205.663388" id="Path" stroke="url(#linearGradient-5)" opacity="0.26" transform="translate(585.159285, 582.781608) rotate(417.480000) translate(-585.159285, -582.781608) "></path>
                <path d="M597.776043,218.357085 C610.257066,219.837832 622.80063,221.115462 635.391122,222.158734 C647.981839,222.389609 660.635083,222.464236 673.303962,222.49199 C686.004247,221.926061 698.720106,221.53198 711.435883,221.434737 C724.167334,221.150013 736.883008,221.427723 749.520385,222.392867 C762.173337,223.52986 774.732316,225.557391 787.150448,228.506719 C799.521596,231.893504 811.705004,236.311461 823.591336,241.713749 C835.383794,247.647246 846.801069,254.565097 857.796322,262.373577 C868.557127,270.650811 878.770966,279.724971 888.328516,289.502347 C897.557928,299.607897 906.037358,310.291706 913.657486,321.444442 C920.824544,332.784779 927.038603,344.484708 932.252824,356.450504 C936.935899,368.494562 940.57229,380.742008 943.115155,393.114739 C945.173762,405.47198 946.170086,417.954499 946.136231,430.48417 C945.757034,442.982691 944.48825,455.528326 942.391527,468.105435 C940.216707,480.65132 937.448263,493.244237 934.164317,505.837296 C931.177175,518.430274 927.955709,531.038939 924.624889,543.663258 C921.934544,556.287399 919.369165,568.92713 916.99125,581.535563 C915.534988,594.159364 914.406869,606.439369 913.622514,618.375573 C913.728578,630.295908 914.100307,641.841217 914.628366,652.964662 C915.859397,664.041044 917.059311,674.664367 918.150013,684.787784 C920.207945,699.597839 922.246983,726.281396 921.665747,738.061313 C920.022452,749.154111 911.769058,768.528931 905.065167,777.045324 C896.846025,785.499644 875.440283,801.972207 862.519082,810.584053 C853.378843,817.007634 843.582434,823.696986 833.239186,830.730197 C822.692644,838.544614 811.66173,846.765363 800.240175,855.376795 C788.693456,864.691298 776.818617,874.271482 764.693797,883.992343 C752.522019,894.056923 740.131598,903.918464 727.600702,913.358222 C715.054257,922.532393 702.398701,930.847328 689.665364,937.974935 C676.947895,944.212026 664.183996,948.871204 651.389346,951.749366 C638.626296,953.330809 625.832541,952.959383 613.054955,950.603829 C600.29333,947.014052 587.828971,941.75253 575.693034,935.131714 C563.541643,927.901605 551.687294,919.812148 540.145523,911.1758 C528.572457,902.726936 517.296222,894.184252 506.301119,885.828967 C495.274571,878.207972 484.497848,871.00873 474.017787,864.324966 C463.443728,858.625478 453.135089,853.441477 443.076266,848.710475 C432.92347,844.87001 422.989294,841.3107 413.320642,837.891923 C403.511239,835.051238 393.920565,832.10113 384.579905,828.885363 C375.11421,825.903975 365.851725,822.438218 356.854962,818.394335 C347.717625,814.288 338.846048,809.462932 330.240235,803.903509 C321.540764,798.094143 313.122691,791.503549 305.06412,784.147327 C296.943141,776.509909 289.197276,768.138105 281.873372,759.094395 C274.549537,749.800717 267.710126,739.91323 261.40199,729.478792 C255.172005,718.888101 249.520132,707.844184 244.524459,696.425133 C239.685024,684.912301 235.517392,673.086824 232.115274,661.011167 C228.931862,648.904204 226.545194,636.593922 224.970868,624.158431 C223.677731,611.707241 223.228179,599.130833 223.669063,586.476066 C224.359889,573.821229 225.909826,561.384878 228.256387,549.182652 C230.806024,536.98037 234.105429,524.980982 238.076485,513.215753 C242.188151,501.387993 246.908992,489.763165 252.207774,478.310031 C257.522204,466.763154 263.352098,455.356742 269.634976,444.07519 C275.855407,432.653048 282.497588,421.324527 289.483421,410.058404 C296.344327,398.636085 303.548892,387.244918 311.034629,375.900542 C318.364199,364.384355 325.959315,352.930588 333.819972,341.554863 C341.493207,330.054205 349.416341,318.709708 357.589359,307.568242 C365.590539,296.442446 373.857195,285.629038 382.358045,275.268632 C390.718253,265.095742 399.343859,255.516453 408.234829,246.65575 C417.016334,238.216898 426.078777,230.668482 435.453375,224.104229 C444.718456,218.149305 454.295666,213.272283 464.200601,209.566897 C474.027253,206.502076 484.197264,204.562018 494.679387,203.762355 C505.130142,203.415768 515.924304,204.022091 527.04628,205.471966 C538.136984,207.031211 549.586828,209.137163 561.38022,211.680464 C573.142476,213.833199 585.279615,216.095191 597.760422,218.357089" id="Path" stroke="url(#linearGradient-6)" opacity="0.89" transform="translate(584.820427, 578.187470) rotate(427.600000) translate(-584.820427, -578.187470) "></path>
                <path d="M605.322085,230.959403 C617.317804,232.409602 629.3448,233.703548 641.418704,234.794366 C653.492792,235.119584 665.613766,235.335421 677.734759,235.473135 C689.871502,235.063989 702.008212,234.795463 714.098002,234.77694 C726.203469,234.524046 738.261959,234.755522 750.226596,235.549501 C762.159966,236.452858 773.983811,238.137465 785.604402,240.634592 C797.17805,243.475468 808.50156,247.238248 819.512456,251.907321 C830.398283,257.029533 840.909012,263.073678 850.935323,269.961659 C860.727231,277.287182 869.987872,285.40968 878.576694,294.219815 C886.868655,303.373759 894.410716,313.137236 901.140424,323.400891 C907.463962,333.883386 912.89707,344.77233 917.408526,355.989609 C921.451359,367.316371 924.541317,378.908978 926.647184,390.658065 C928.346924,402.454123 929.109437,414.391026 928.950362,426.390647 C928.525745,438.405957 927.320116,450.499576 925.364732,462.593375 C923.409349,474.687173 920.907262,486.812352 917.952199,498.93764 C915.293917,511.047232 912.401337,523.15688 909.399425,535.235305 C906.975453,547.297967 904.629583,559.344986 902.424308,571.329474 C901.04689,583.298139 899.919472,594.923005 899.05769,606.141572 C899.008142,617.359945 899.146129,628.172036 899.4248,638.546609 C900.343894,648.889779 901.231856,658.779848 902.0106,668.16996 C903.600528,681.934726 905.094078,706.79288 904.497868,717.870763 C903.042687,728.433245 895.82176,747.387443 889.930991,756.044805 C882.696882,764.827484 863.730113,782.503293 852.15354,791.865119 C843.935832,798.757475 835.093268,805.899972 825.688315,813.355093 C816.095758,821.497735 806.003293,829.937362 795.489021,838.673955 C784.865279,847.957429 773.866622,857.397239 762.602431,866.821487 C751.260084,876.480121 739.66789,885.841951 727.904002,894.688214 C716.124564,903.237616 704.173525,910.880841 692.12904,917.383503 C680.084758,923.042445 667.947112,927.217085 655.763003,929.735544 C643.594791,931.097789 631.364531,930.663236 619.134708,928.400622 C606.905152,925.028672 594.9415,920.12546 583.243693,913.94098 C571.561642,907.194015 560.129714,899.587645 548.979079,891.418727 C537.797185,883.327939 526.865243,875.096471 516.214448,866.911809 C505.501027,859.336516 495.037453,852.058028 484.8237,845.185715 C474.531641,839.172767 464.47378,833.581622 454.650119,828.396658 C444.74816,824.039808 435.049193,819.96415 425.568859,816.075933 C415.994663,812.781468 406.623533,809.455706 397.486735,805.989267 C388.224907,802.819722 379.197455,799.322008 370.388787,795.386757 C361.502012,791.482773 352.84967,787.016253 344.463016,781.924691 C336.013912,776.708148 327.861747,770.819682 320.037764,764.243661 C312.19821,757.464526 304.718074,750.013453 297.659825,741.937301 C290.617244,733.658027 284.059022,724.784908 278.000767,715.364812 C272.036261,705.819699 266.649811,695.774464 261.872633,685.322848 C257.251677,674.777447 253.318078,663.888143 250.071828,652.686185 C247.075508,641.437294 244.813381,629.938236 243.347918,618.235869 C242.132376,606.517817 241.729113,594.612077 242.16936,582.549891 C242.875146,570.48764 244.377512,558.565819 246.645214,546.800059 C249.115979,535.018626 252.305221,523.393265 256.134844,511.90837 C260.105057,500.376569 264.668792,488.985245 269.779196,477.703162 C274.936479,466.342945 280.577951,455.091983 286.672386,443.90341 C292.719979,432.636726 299.173682,421.401194 305.971003,410.243702 C312.674635,398.961236 319.706274,387.725565 327.019055,376.552325 C334.19128,365.285372 341.629024,354.096477 349.316652,343.048142 C356.863712,331.952968 364.629403,321.060859 372.644947,310.434307 C380.504271,299.901538 388.597802,289.7437 396.925512,280.085789 C405.112584,270.677902 413.549427,261.87931 422.236008,253.830632 C430.797526,246.219468 439.639995,239.467583 448.747771,233.68435 C457.746072,228.463624 467.056527,224.258412 476.647879,221.146846 C486.160999,218.582154 495.98627,217.048601 506.123692,216.546188 C516.198544,216.418777 526.601211,217.135008 537.316093,218.616763 C547.999723,220.145398 559.011251,222.173937 570.350703,224.593009 C581.674625,226.637098 593.326538,228.79048 605.306465,230.959407" id="Path" stroke="url(#linearGradient-7)" opacity="0.88" transform="translate(585.483707, 573.520082) rotate(437.720000) translate(-585.483707, -573.520082) "></path>
                <path d="M613.578288,243.693178 C625.042185,245.113111 636.568581,246.392402 648.079383,247.531066 C659.605928,247.950949 671.148106,248.292701 682.674676,248.571954 C694.201339,248.319935 705.712364,248.177299 717.145257,248.253435 C728.593818,248.048307 739.948593,248.265087 751.162715,248.966285 C762.361213,249.698738 773.387788,251.103121 784.195578,253.210696 C794.925228,255.583919 805.389219,258.76972 815.493835,262.783742 C825.473438,267.157174 835.046804,272.390086 844.135855,278.404363 C853.006172,284.824944 861.329703,291.995649 869.012747,299.853993 C876.398978,308.040527 883.08226,316.836582 889.000132,326.164041 C894.543113,335.72595 899.289464,345.725514 903.161103,356.084621 C906.657866,366.600048 909.279931,377.396889 911.027309,388.412641 C912.431062,399.506581 913.006996,410.756921 912.770733,422.132408 C912.347041,433.539179 911.220492,445.0242 909.437949,456.556212 C907.686643,468.088219 905.451152,479.651562 902.825194,491.199347 C900.464756,502.747085 897.901273,514.294859 895.197234,525.780155 C893.039849,537.265356 890.913713,548.688049 888.881306,560.016972 C887.551741,571.345772 886.440903,582.29952 885.533177,592.862592 C885.328297,603.409916 885.279672,613.566572 885.324838,623.270069 C886.243847,637.598595 888.175983,663.927415 888.736172,675.896536 C889.093397,687.41255 887.059326,708.288722 884.355627,717.820817 C880.652348,727.243706 869.075713,745.387059 861.233529,754.482532 C855.484708,760.968163 849.033029,767.54767 841.909717,774.28355 C834.567651,781.550739 826.616411,789.068044 818.102856,796.819831 C809.417397,805.13417 800.232098,813.68298 790.625063,822.403746 C780.893003,831.56205 770.78609,840.736046 760.3512,849.816345 C749.853819,858.990408 739.090985,867.789503 728.109587,876.026115 C717.097012,883.918968 705.897169,890.905568 694.556949,896.7984 C683.201246,901.909954 671.736454,905.630847 660.178216,907.820447 C648.63578,908.963128 636.999917,908.465136 625.317486,906.310837 C613.650848,903.156497 602.203115,898.611438 590.989875,892.847541 C579.761108,886.552376 568.766764,879.444639 558.022423,871.743084 C547.246839,864.072787 536.689961,856.152441 526.367366,848.216429 C516.013452,840.74919 505.862547,833.48505 495.930254,826.502132 C485.95098,820.238 476.174687,814.333222 466.601375,808.787798 C456.949844,803.961166 447.501307,799.415759 438.271397,795.073448 C428.947674,791.3093 419.811371,787.576371 410.893737,783.796527 C401.89795,780.360459 393.105245,776.705598 384.546878,772.722559 C375.91039,768.895789 367.508264,764.600209 359.402981,759.804559 C351.235226,754.993294 343.348709,749.603832 335.805907,743.620537 C328.263125,737.527862 321.079679,730.825727 314.30242,723.545372 C307.572043,716.124379 301.294706,708.140786 295.517261,699.625834 C289.849166,691.001484 284.712192,681.892647 280.184425,672.346187 C275.812858,662.721572 272.081728,652.706205 269.022265,642.331331 C266.197086,631.940792 264.074803,621.237617 262.702269,610.253051 C261.579634,599.268441 261.237979,588.033686 261.677295,576.595661 C262.366514,565.141967 263.836658,553.75064 266.025248,542.452941 C268.401264,531.139584 271.464491,519.904235 275.152451,508.762531 C278.965366,497.589554 283.356163,486.478979 288.277983,475.446439 C293.246667,464.367014 298.683905,453.334385 304.574075,442.364179 C310.433021,431.31585 316.682424,420.329956 323.275431,409.390878 C329.790356,398.389312 336.633265,387.434566 343.741674,376.589152 C350.74076,365.696881 358.020961,354.929566 365.519794,344.334094 C372.893669,333.785521 380.517403,323.471288 388.344124,313.485158 C396.030249,303.655309 403.950583,294.231685 412.105106,285.339291 C420.103391,276.74381 428.351463,268.788936 436.833688,261.568426 C445.190887,254.785454 453.797841,248.830596 462.654538,243.78198 C471.417429,239.264651 480.445675,235.684812 489.723647,233.10497 C498.954678,231.009529 508.451067,229.835953 518.228432,229.58424 C527.95889,229.629421 537.98597,230.440206 548.294067,231.938468 C558.586548,233.421108 569.160088,235.356841 580.045939,237.651909 C590.916237,239.571965 602.083269,241.616974 613.56267,243.693181" id="Path" stroke="url(#linearGradient-8)" opacity="0.67" transform="translate(587.157091, 569.000456) rotate(447.840000) translate(-587.157091, -569.000456) "></path>
                <path d="M622.229852,256.745263 C633.177947,258.119426 644.141668,259.415456 655.089782,260.57085 C666.037952,261.085564 676.97051,261.537775 687.871836,261.943109 C698.757587,261.848401 709.596477,261.847456 720.341643,262.018408 C731.071216,261.908088 741.691433,262.141557 752.139816,262.781326 C762.556965,263.405471 772.771031,264.592182 782.735156,266.388342 C792.621175,268.372025 802.21039,271.058919 811.424709,274.480284 C820.514058,278.214187 829.181654,282.698191 837.365029,287.916675 C845.345342,293.463331 852.778962,299.728845 859.587805,306.65072 C866.146732,313.885144 872.049652,321.713427 877.21848,330.073068 C882.074927,338.682759 886.197287,347.745677 889.523098,357.183697 C892.536533,366.793634 894.76904,376.731793 896.205008,386.920042 C897.406697,397.20207 897.843087,407.687307 897.576655,418.313242 C897.169655,429.001695 896.153545,439.783959 894.559563,450.644406 C893.028051,461.520473 891.043615,472.427832 888.715583,483.335221 C886.653055,494.258214 884.387495,505.165598 881.981378,516.010488 C880.059418,526.870963 878.137464,537.653307 876.262373,548.341888 C875.012002,559.030414 873.917843,569.343895 872.964279,579.282331 C872.635434,589.220713 872.41595,598.768427 872.243357,607.894225 C872.773193,621.379711 873.879898,646.303629 874.097553,657.742092 C874.205913,668.821159 872.080078,689.323104 869.580362,698.917895 C866.268509,708.528384 856.005832,727.499658 849.023747,737.141719 C843.947303,743.970873 838.199276,750.90947 831.842133,758.004384 C825.281917,765.552479 818.143817,773.303767 810.47469,781.226991 C802.649344,789.603392 794.324209,798.120474 785.577382,806.715725 C776.705586,815.607887 767.458962,824.437576 757.868759,833.07978 C748.216084,841.721988 738.266706,849.926685 728.067491,857.537603 C717.837074,864.757865 707.38808,871.118697 696.767381,876.416953 C686.131128,880.980773 675.338805,884.278872 664.43728,886.154984 C653.535836,887.109142 642.509578,886.563181 631.42098,884.517098 C620.31684,881.580314 609.400229,877.362154 598.686749,872.01888 C587.957694,866.19119 577.431744,859.550913 567.09326,852.332445 C556.73916,845.082726 546.572503,837.53609 536.624505,829.895677 C526.629624,822.599047 516.822149,815.411786 507.202074,808.412024 C497.550709,802.021692 488.055503,795.881368 478.778923,790.037925 C469.424195,784.850796 460.256865,779.882419 451.276931,775.132795 C442.234479,770.914471 433.379436,766.774263 424.727426,762.649664 C416.012911,758.900102 407.501444,754.994259 399.224264,750.885253 C386.839721,744.838939 363.320229,730.949173 352.310246,722.871315 C345.079603,717.262089 338.208219,711.137163 331.742948,704.496531 C325.340155,697.777763 319.374712,690.527661 313.893471,682.777474 C308.505944,674.964773 303.665088,666.667608 299.386519,657.932856 C295.264135,649.135586 291.750888,639.931977 288.89363,630.353279 C286.239408,620.743311 284.256789,610.80513 282.992627,600.538734 C281.962734,590.272318 281.651293,579.724565 282.105159,568.895471 C282.777677,558.066357 284.199857,547.252805 286.293612,536.439194 C288.57478,525.641194 291.496286,514.858763 295.02689,504.107532 C298.68244,493.340664 302.884616,482.605001 307.602184,471.900546 C312.366608,461.18046 317.599568,450.491586 323.254212,439.833928 C328.908857,429.160644 334.922713,418.518581 341.295777,407.938992 C347.606372,397.343782 354.229319,386.826677 361.133377,376.450184 C367.92811,366.073701 375.003953,355.853456 382.314046,345.867587 C389.499188,335.95986 396.918575,326.333386 404.55658,317.097552 C412.069627,308.033619 419.801285,299.422831 427.73593,291.358946 C435.561222,283.607599 443.60511,276.496912 451.851969,270.105019 C460.005085,264.119419 468.392401,258.930742 476.982676,254.601496 C485.494822,250.725421 494.256778,247.740026 503.252926,245.645311 C512.170949,243.956889 521.354406,243.096639 530.787678,243.064563 C540.174077,243.251261 549.810305,244.125495 559.727604,245.593506 C569.598052,247.030269 579.765207,248.87329 590.182222,251.028817 C600.58365,252.840565 611.266192,254.761673 622.214234,256.745264" id="Path" stroke="url(#linearGradient-9)" opacity="0.7" transform="translate(589.777016, 564.837360) rotate(457.960000) translate(-589.777016, -564.837360) "></path>
                <path d="M630.598189,269.746087 C640.999646,271.090081 651.385485,272.355942 661.740087,273.54367 C672.079066,274.153215 682.402426,274.700254 692.632079,275.231665 C702.861727,275.278653 712.997669,275.4194 723.024289,275.700784 C733.019669,275.70089 742.874493,275.982272 752.541907,276.607437 C762.162467,277.154468 771.564383,278.18592 780.685185,279.748672 C794.085272,282.561594 818.917643,291.687765 830.131278,298.094772 C840.564036,305.580002 858.274798,324.097658 865.365386,334.942562 C871.409591,346.646916 879.624817,372.368312 881.780217,386.166583 C882.795473,395.57378 883.154784,405.215369 882.889385,415.013216 C882.530281,424.889195 881.640173,434.905807 880.23468,445.000547 C878.907276,455.142167 877.205045,465.330663 875.159224,475.534782 C873.378905,485.770156 871.395555,495.989902 869.256026,506.178394 C867.553796,516.366889 865.820329,526.508505 864.10248,536.540735 C862.931252,546.588598 861.853728,556.292677 860.869907,565.652973 C860.26096,579.513721 859.886408,605.422546 859.886535,617.486246 C860.230251,629.221793 859.949362,651.08334 859.012404,661.33435 C857.669382,671.47597 852.281454,691.08724 848.080373,700.77566 C843.067172,710.839108 829.776659,731.653538 821.530586,742.576413 C815.689617,750.295869 809.286409,758.155959 802.399051,766.109802 C795.355519,774.423055 787.843455,782.783182 779.90971,791.143305 C771.866642,799.690946 763.433128,808.082317 754.671638,816.208032 C745.816441,824.271241 736.664501,831.850023 727.247052,838.819367 C717.798363,845.398047 708.099781,851.13289 698.198156,855.852004 C688.296525,859.914804 678.191851,862.805609 667.96222,864.39941 C657.716963,865.165002 647.331131,864.58671 636.835961,862.648906 C626.340782,859.929774 615.986151,856.023026 605.772069,851.100553 C595.5736,845.709283 585.515683,839.552314 575.629556,832.817164 C565.727809,826.003881 555.982237,818.862442 546.408459,811.549113 C536.819066,804.501435 527.370233,797.453758 518.108815,790.531096 C508.800548,784.077231 499.664079,777.810885 490.68379,771.77894 C481.672271,766.278297 472.816933,760.996428 464.14901,755.886452 C455.41862,751.276526 446.875645,746.760361 438.520084,742.275451 C426.025793,736.087203 402.06798,723.42944 390.698163,716.647394 C379.578228,709.69346 358.915734,693.847914 349.529351,684.831292 C340.642732,675.314626 325.305843,653.906083 319.011752,642.076714 C315.138456,634.013371 311.858632,625.543743 309.187898,616.699085 C306.720194,607.823175 304.877198,598.587862 303.721381,589.024398 C302.768595,579.44531 302.518606,569.553698 302.971413,559.365188 C303.627252,549.176681 304.985891,538.941302 306.984859,528.674677 C309.17124,518.42368 311.951096,508.141436 315.308811,497.874825 C318.791467,487.592589 322.805129,477.310358 327.287323,467.043759 C331.847607,456.77716 336.845189,446.526193 342.248834,436.32211 C347.668096,426.118027 353.462186,415.960827 359.568632,405.881764 C365.659461,395.818327 372.047029,385.864279 378.7001,376.082126 C385.290701,366.331226 392.131189,356.783473 399.205946,347.501374 C406.186998,338.344287 413.386702,329.499733 420.80506,321.061472 C428.114095,312.841981 435.641784,305.075663 443.356892,297.871903 C450.962679,290.965046 458.787122,284.698881 466.798985,279.104659 C478.793363,271.682172 503.687998,261.27515 516.603874,258.384374 C529.660323,256.759351 556.819653,257.353448 570.953766,259.228784 C580.433775,260.604021 590.132436,262.323045 600.080985,264.354603 C610.013912,266.042376 620.181108,267.87079 630.582571,269.746087" id="Path" stroke="url(#linearGradient-10)" opacity="0.61" transform="translate(592.863129, 561.082830) rotate(468.080000) translate(-592.863129, -561.082830) "></path>
                <path d="M639.448453,284.554273 C649.288001,285.852303 659.08069,287.10345 668.795284,288.30771 C678.525439,288.98068 688.177501,289.638015 697.735853,290.279714 C716.821183,290.266132 735.42241,290.799416 753.211593,292.25456 C770.813311,293.256524 787.384429,296.086645 802.534521,300.994903 C817.184899,306.51253 830.101932,314.498916 840.895143,324.750876 C850.923165,335.909076 858.608695,349.176566 863.748654,364.131415 C868.123396,379.742485 870.061855,396.681522 869.657689,414.479751 C869.097376,432.590488 866.787898,451.294834 863.057193,470.202169 C861.527636,479.702751 859.81066,489.203313 857.937504,498.703858 C856.454801,508.204445 854.894005,517.689398 853.317583,527.096218 C851.694794,541.065891 849.401764,567.520847 848.653428,579.97487 C848.889459,596.413686 848.67244,611.680486 847.72125,625.837746 C847.504139,640.245103 845.834457,653.839742 842.477951,666.809151 C839.012197,680.51298 833.422367,694.091573 825.724099,707.732444 C817.52618,722.576482 807.173002,737.795318 794.883202,753.232714 C782.140583,769.67014 767.633089,785.841731 751.704241,801.013091 C735.525452,815.715638 718.112579,828.042866 699.793492,836.979106 C690.594808,840.556526 681.208591,843.055717 671.634833,844.398548 C662.060996,845.006945 652.33085,844.412106 642.444388,842.567153 C632.573473,840.050273 622.796151,836.455194 613.128056,831.922553 C603.459915,826.968003 593.916642,821.294661 584.513871,815.043163 C565.66145,802.321396 547.29308,788.568349 529.533801,774.674731 C511.680976,762.296847 494.37484,750.434688 477.755969,739.213277 C461.012344,729.773243 444.924702,720.53642 429.71166,711.174681 C414.436251,702.797387 400.113457,693.57638 387.008755,683.230414 C374.060259,673.118858 362.517228,661.460457 352.707641,648.255245 C343.36659,634.987578 335.977628,620.079366 330.853135,603.702531 C327.712557,591.201214 324.835963,564.464432 325.178044,550.29148 C325.832982,540.743926 327.128255,531.118309 329.032629,521.445879 C331.093185,511.773465 333.747223,502.054236 336.916657,492.319436 C343.614744,472.865501 352.249472,453.364895 362.492887,434.067602 C372.845635,414.832825 384.557191,395.895093 397.362088,377.645031 C409.979603,359.7231 423.596785,342.816981 437.979419,327.442314 C452.065401,312.927058 466.948124,300.443297 482.502697,290.491056 C497.791903,281.867017 513.846696,276.024527 530.604622,273.166722 C547.190857,271.308978 564.605115,271.920266 582.753657,274.703678 C591.796681,275.985997 601.058394,277.612116 610.507552,279.488276 C619.956678,281.067536 629.593234,282.771827 639.432834,284.554271" id="Path" stroke="url(#linearGradient-11)" opacity="0.14" transform="translate(597.430121, 558.365258) rotate(478.200000) translate(-597.430121, -558.365258) "></path>
                <path d="M647.964978,300.242914 C666.458187,302.262111 684.685867,304.250006 702.413723,306.144054 C720.110039,306.444305 737.212927,307.228831 753.456918,308.778838 C769.482138,309.766288 784.445567,312.316076 797.988003,316.600013 C811.093182,321.274502 822.543164,328.10498 832.009925,336.950757 C840.836448,346.530806 847.554787,358.063628 851.977456,371.252305 C855.837948,384.987764 857.574523,400.082228 857.233963,416.145072 C856.862218,432.489166 854.959948,449.520487 851.761375,466.910945 C849.437477,484.379697 846.520098,502.051466 843.259085,519.629417 C841.638063,537.223306 840.01686,553.864045 838.379842,569.473505 C838.211016,585.145746 837.573452,599.927251 836.264107,613.833605 C835.673287,628.021353 833.817229,641.661971 830.508523,654.849177 C827.21557,668.739528 822.063957,682.598275 815.069316,696.487921 C807.731248,711.377528 798.440851,726.469893 787.385513,741.561922 C775.971063,757.294524 762.88529,772.526795 748.4092,786.540021 C733.714326,799.928188 717.785115,811.003563 700.886918,818.859921 C683.910212,824.544333 666.073692,826.165979 647.595951,823.34989 C629.117758,818.158741 610.873172,809.405045 593.065427,798.088867 C575.226347,786.257046 557.777518,773.253394 540.859661,759.874833 C523.879548,747.65254 507.38367,735.680346 491.512639,724.177032 C475.57942,714.18937 460.286614,704.389335 445.837227,694.573835 C431.388028,685.742735 417.860233,676.318045 405.519317,666.04981 C393.381516,656.140997 382.586705,644.982409 373.447256,632.527227 C364.760758,620.087757 357.917025,606.226727 353.212825,590.991069 C349.164615,575.724286 347.396514,559.114152 348.095977,541.301332 C349.529527,523.473027 353.33709,505.301415 359.19072,487.052065 C365.497308,468.849678 373.66254,450.600769 383.342858,432.602154 C393.14815,414.728566 404.296749,397.261495 416.491963,380.560267 C428.577921,364.265278 441.632462,349.064252 455.437009,335.425908 C468.991813,322.631288 483.327937,311.789992 498.304891,303.339503 C513.03216,296.029621 528.478376,291.219939 544.549852,289.051068 C560.449668,287.663434 577.083981,288.41662 594.343415,291.076223 C611.540293,293.313929 629.455821,296.489295 647.949359,300.242911" id="Path" stroke="url(#linearGradient-12)" opacity="0.34" transform="translate(602.611275, 556.535339) rotate(488.320000) translate(-602.611275, -556.535339) "></path>
                <path d="M655.294327,316.392247 C672.586345,318.365217 689.503495,320.40059 705.842695,322.420194 C722.134674,323.002363 737.770716,324.021845 752.469716,325.712932 C766.996734,326.763384 780.430668,329.125994 792.474775,332.956928 C804.159661,336.959637 814.267374,342.821229 822.547978,350.479142 C830.328864,358.652529 836.22016,368.622222 840.065601,380.138196 C843.520658,392.138422 845.101628,405.466233 844.870908,419.793538 C844.702739,434.402094 843.175807,449.775894 840.477487,465.649375 C838.575811,481.585551 836.065031,497.849683 833.116914,514.223074 C831.590232,530.596821 829.907172,546.267442 828.130196,561.15683 C827.602849,576.109028 826.591117,590.420513 824.970038,604.091255 C824.020701,618.059025 821.977857,631.651541 818.66971,644.962505 C815.471053,658.867215 810.679143,672.787151 804.262731,686.691056 C797.627824,701.344867 789.274714,716.060745 779.297049,730.541854 C769.053934,745.397876 757.264243,759.5348 744.146505,772.343338 C730.841142,784.417492 716.332464,794.241466 700.807728,801.080969 C685.235651,805.998687 668.756695,807.275747 651.558218,804.584089 C634.359229,799.845664 617.300017,791.888695 600.552607,781.525683 C583.78944,770.61582 567.33836,758.440478 551.324504,745.702775 C535.295239,733.808774 519.687722,721.930502 504.673838,710.317989 C489.64465,699.971031 475.20906,689.749214 461.60135,679.574476 C448.040732,670.321577 435.370357,660.647047 423.855723,650.363464 C412.55988,640.517413 402.544641,629.671735 394.106778,617.779632 C386.090686,605.997004 379.7925,592.964872 375.493402,578.761427 C371.819108,564.542515 370.221991,549.105436 370.936377,532.543996 C372.306811,515.98272 375.87961,499.109512 381.358062,482.205531 C387.273886,465.332909 394.907933,448.47634 403.994737,431.948242 C413.237786,415.592049 423.777426,399.704906 435.316976,384.692966 C446.809766,370.087242 459.224432,356.622314 472.373636,344.719986 C485.36683,333.583204 499.079021,324.321501 513.369701,317.231703 C527.504418,311.09494 542.264499,307.192589 557.571865,305.602753 C572.754411,304.575355 588.562232,305.423014 604.870312,307.92696 C621.147039,309.977797 638.00193,312.903732 655.294327,316.392247" id="Path" stroke="url(#linearGradient-13)" opacity="0.21" transform="translate(607.831421, 555.571122) rotate(498.440000) translate(-607.831421, -555.571122) "></path>
                <path d="M661.575232,333.560809 C677.634813,335.471257 693.225783,337.522179 708.176288,339.651036 C723.079571,340.498819 737.264376,341.768214 750.512035,343.584142 C763.587681,344.775114 775.585735,347.043752 786.256293,350.546212 C796.63004,354.048589 805.535793,359.128449 812.786087,365.770116 C819.645941,372.770996 824.834723,381.364925 828.211796,391.395636 C831.339022,401.7856 832.84196,413.471794 832.755601,426.173018 C832.802241,439.093 831.634462,452.871889 829.404576,467.244145 C827.877682,481.679088 825.741674,496.582542 823.09023,511.76706 C821.657271,526.936296 819.958617,541.652399 818.056733,555.837274 C817.232756,570.069318 815.924395,583.895036 814.022289,597.283154 C812.760744,610.937036 810.514975,624.371926 807.191261,637.619043 C804.039515,651.334888 799.513069,665.065973 793.565032,678.718548 C787.523413,692.902268 779.935221,706.976198 770.925346,720.643541 C761.72805,734.451437 751.108941,747.384064 739.239713,758.925924 C727.229672,769.686609 714.047415,778.322281 699.864607,784.20808 C685.650084,788.40662 670.512986,789.386627 654.625065,786.835696 C638.736656,782.535023 622.878683,775.34416 607.254417,765.93494 C591.629989,755.94768 576.239525,744.663803 561.223783,732.677008 C546.223821,721.252635 531.583108,709.656512 517.5048,698.154283 C503.442393,687.65191 489.958,677.196566 477.254702,666.788309 C464.64536,657.192458 452.895126,647.300015 442.238289,636.986064 C431.815904,627.125237 422.596171,616.499234 414.860268,605.061264 C407.530567,593.764012 401.809611,581.451734 397.916114,568.155736 C394.569378,554.875513 393.175051,540.533492 393.889381,525.239074 C395.197328,509.929199 398.520406,494.401169 403.608735,478.889254 C409.103239,463.42432 416.222429,448.084821 424.685184,433.120642 C433.335452,418.343987 443.204369,404.145712 454.042077,390.8382 C464.879902,377.952501 476.608479,366.207508 489.040452,355.978112 C501.363261,346.420461 514.389524,338.581503 527.931854,332.72677 C541.365042,327.621897 555.392402,324.485649 569.857729,323.36485 C584.245049,322.603351 599.163962,323.482384 614.489443,325.81444 C629.783546,327.662185 645.530903,330.322435 661.575232,333.560809" id="Path" stroke="url(#linearGradient-14)" opacity="0.5" transform="translate(613.231363, 555.665166) rotate(508.560000) translate(-613.231363, -555.665166) "></path>
                <path d="M666.522713,351.773855 C681.302744,353.60557 695.582897,355.671465 709.160041,357.862138 C722.705635,358.943701 735.501423,360.415587 747.344338,362.40271 C759.062089,363.733712 769.717715,365.98607 779.139386,369.253467 C792.248715,374.661969 810.892036,392.459559 816.222945,404.911076 C819.084439,413.8784 820.540184,424.079411 820.621366,435.295421 C820.858823,446.667686 820.034147,458.930066 818.225398,471.879508 C817.041589,484.875984 815.233011,498.450271 812.877741,512.461802 C811.537978,526.473611 809.854437,540.235386 807.873965,553.669037 C806.815278,567.165424 805.256586,580.427357 803.135386,593.423577 C801.592304,606.638651 799.174289,619.728517 795.81885,632.693157 C792.682228,646.001522 788.358241,659.293941 782.815603,672.429816 C777.241803,685.878106 770.339973,699.107336 762.172512,711.773859 C753.880053,724.393484 744.306232,736.059869 733.59153,746.304416 C722.751637,755.799114 710.833194,763.278389 697.945435,768.273635 C685.026036,771.831727 671.199711,772.530899 656.622628,770.136878 C642.045143,766.274468 627.435699,759.803317 612.997559,751.317084 C598.559265,742.26849 584.276849,731.923382 570.337925,720.78169 C556.430341,709.983671 542.85075,698.842077 529.771083,687.638134 C516.754115,677.184025 504.283954,666.714443 492.563701,656.229445 C480.953002,646.44743 470.15465,636.44694 460.387346,626.14993 C450.870128,616.274759 442.477622,605.821914 435.459794,594.77584 C428.816968,583.901701 423.6425,572.215664 420.155127,559.764652 C417.1677,547.329397 415.945457,534.035461 416.644657,519.976614 C417.890659,505.886675 420.964553,491.719129 425.663287,477.661375 C430.736991,463.650587 437.294953,449.843281 445.11852,436.504954 C453.145241,423.354137 462.297001,410.828474 472.386408,399.240336 C482.50716,388.011493 493.487499,377.92323 505.1244,369.25667 C516.714582,361.136839 528.961368,354.594923 541.692955,349.81833 C554.362199,345.588461 567.547478,343.07706 581.108192,342.31533 C594.637719,341.772288 608.605075,342.619648 622.869618,344.732403 C637.134036,346.392144 651.726743,348.78617 666.522713,351.773855" id="Path" stroke="url(#linearGradient-15)" opacity="0.31" transform="translate(618.557085, 556.847872) rotate(518.680000) translate(-618.557085, -556.847872) "></path>
                <path d="M669.947813,370.982757 C683.447875,372.735327 696.401142,374.768924 708.651349,377.005413 C720.870081,378.273471 732.323302,379.947463 742.854778,382.074212 C758.011256,384.717494 782.590909,393.954511 791.623612,401.157324 C799.078531,409.640587 807.255595,432.712855 808.227673,447.036383 C808.65187,457.001875 808.123178,467.87309 806.71968,479.478227 C805.831802,491.114725 804.334725,503.438349 802.259659,516.277289 C800.997076,529.132038 799.343866,541.939837 797.346872,554.560119 C796.099872,567.243055 794.352868,579.847776 792.058966,592.296171 C790.280712,604.900884 787.736842,617.458559 784.364839,629.891082 C781.211635,642.557952 777.058443,655.16211 771.858347,667.531726 C766.673913,680.057544 760.348799,692.22384 752.929813,703.749472 C745.43266,715.087648 736.794685,725.457133 727.140782,734.420604 C717.392964,742.665545 706.644739,749.067123 695.005394,753.25049 C683.334514,756.215509 670.803696,756.68117 657.537893,754.460063 C644.271798,750.989376 630.927043,745.22257 617.691235,737.6439 C604.486552,729.534165 591.390942,720.143638 578.592005,709.925334 C565.824355,699.863235 553.36909,689.348236 541.382515,678.63029 C529.458567,668.45905 518.065826,658.162977 507.360556,647.820204 C496.780411,638.024153 486.981455,628.056466 478.135549,617.870327 C469.5241,608.059116 461.975028,597.84204 455.660197,587.1879 C449.704772,576.705662 445.092924,565.630188 442.012147,553.961522 C439.36887,542.339818 438.319148,530.062458 439.003621,517.207573 C440.156829,504.337178 442.98188,491.514033 447.275694,478.909909 C451.91326,466.352724 457.910235,454.092632 465.079184,442.379505 C472.435664,430.82262 480.870398,419.937635 490.164702,409.974417 C499.521576,400.323608 509.675561,391.766367 520.470459,384.505714 C531.249833,377.68241 542.638897,372.265026 554.481435,368.394102 C566.277191,364.91366 578.557657,362.917207 591.166587,362.404706 C603.744289,361.985916 616.681639,362.76993 629.853618,364.663001 C643.02549,366.103099 656.431896,368.24614 669.947813,370.982757" id="Path" stroke="url(#linearGradient-16)" opacity="0.61" transform="translate(623.585043, 559.072777) rotate(528.800000) translate(-623.585043, -559.072777) "></path>
                <path d="M671.751364,391.124405 C683.970946,392.782004 695.612431,394.767499 706.566426,397.002778 C717.489038,398.441502 727.677303,400.254951 737.006223,402.48996 C750.397933,405.350388 772.025396,414.256589 779.995594,420.802114 C786.653391,428.300157 794.250839,448.511916 795.377975,461.085096 C795.988828,469.831627 795.724784,479.437037 794.663955,489.807628 C794.040649,500.19391 792.808059,511.298548 790.997419,523.012216 C789.843059,534.725993 788.251191,546.517791 786.253048,558.262665 C784.879938,570.03888 783.00681,581.84625 780.602393,593.55982 C778.651139,605.382795 776.012352,617.190038 772.639135,628.87221 C769.500325,640.67937 765.486454,652.361435 760.597494,663.746602 C755.77104,675.147398 749.94447,686.126326 743.18024,696.402259 C736.384718,706.42829 728.604612,715.470184 719.917993,723.168726 C711.18439,730.226897 701.528596,735.62934 691.075564,739.063705 C680.591115,741.498473 669.309394,741.762119 657.355385,739.714098 C645.385579,736.635245 633.321687,731.557193 621.35128,724.854819 C609.38079,717.652649 597.519481,709.247863 585.908043,699.999713 C574.34349,690.798426 563.060107,681.034916 552.214197,670.990342 C541.430847,661.289389 531.147486,651.385477 521.504764,641.387959 C512.00274,631.796548 503.219471,622.033452 495.311218,612.129934 C487.621772,602.507587 480.901074,592.604265 475.321006,582.419997 C470.037847,572.360727 465.973426,561.895575 463.284004,551.040185 C460.953978,540.216092 460.077065,528.923681 460.747036,517.25668 C461.80765,505.589743 464.383984,494.079244 468.272932,482.896953 C472.458774,471.745949 477.89474,461.001236 484.377725,450.834586 C491.048239,440.792917 498.703289,431.454248 507.171027,423.021594 C515.716932,414.823233 525.013037,407.624588 534.887493,401.628673 C544.793249,395.929517 555.24611,391.464322 566.121091,388.358019 C576.99611,385.485994 588.277606,383.863527 599.856202,383.521837 C611.419172,383.180143 623.279202,383.869329 635.295647,385.511276 C647.32765,386.747142 659.531645,388.639018 671.751364,391.124405" id="Path" stroke="url(#linearGradient-17)" opacity="0.15" transform="translate(628.114849, 562.261968) rotate(538.920000) translate(-628.114849, -562.261968) "></path>
                <path d="M672.318468,412.112233 C683.25706,413.659252 693.617504,415.56544 703.321663,417.783936 C717.494991,420.2839 741.950779,426.611053 751.983246,430.828672 C760.95314,435.327332 773.955283,448.119433 777.97192,456.615906 C781.066668,465.986913 783.084244,488.976687 782.303963,502.439298 C781.914014,511.669475 780.930318,521.602414 779.352868,532.191261 C778.306715,542.764531 776.791783,553.493944 774.839315,564.270178 C773.402519,575.062069 771.450057,585.916392 769.013174,596.739442 C766.935703,607.609374 764.2488,618.46364 760.936832,629.177297 C757.82801,639.937823 753.969106,650.510877 749.360109,660.724659 C744.844867,670.907213 739.485762,680.589928 733.329654,689.538538 C727.173526,698.221642 720.173499,705.951987 712.376433,712.46407 C704.563697,718.413906 695.9539,722.879976 686.625159,725.643634 C677.280728,727.595158 667.232968,727.703709 656.559999,725.828733 C645.87134,723.126004 635.104417,718.705296 624.399888,712.847741 C613.710952,706.552884 603.100062,699.133541 592.723503,690.886466 C582.393821,682.608157 572.314116,673.736387 562.640668,664.489816 C553.045369,655.461903 543.903213,646.152902 535.354849,636.703385 C526.931519,627.535001 519.164483,618.19487 512.21001,608.729857 C505.44307,599.483511 499.535565,590.01858 494.659389,580.38193 C490.048871,570.870245 486.51655,561.061902 484.203072,551.035001 C482.202123,541.03936 481.466891,530.762694 482.122389,520.251866 C483.090416,509.75668 485.402334,499.54272 488.886262,489.719299 C492.620215,479.942752 497.463677,470.61921 503.276022,461.904843 C509.244639,453.284196 516.104012,445.350807 523.713519,438.276463 C531.40117,431.373923 539.776454,425.392894 548.698741,420.442692 C557.652298,415.711144 567.137233,412.041657 576.981665,409.527926 C586.841733,407.139139 597.076916,405.812402 607.546578,405.563322 C618.03186,405.236153 628.751607,405.799225 639.59643,407.205676 C650.441224,408.237296 661.395451,409.893642 672.318468,412.112233" id="Path" stroke="url(#linearGradient-18)" opacity="0.31" transform="translate(632.180585, 566.323042) rotate(549.040000) translate(-632.180585, -566.323042) "></path>
                <path d="M670.011634,434.208024 C689.31037,436.487814 706.436981,440.376281 720.750788,445.545468 C734.908364,449.043554 746.112475,454.806282 753.878697,462.927369 C761.551169,470.564307 766.067014,481.278017 767.301224,494.818616 C769.176124,508.312349 768.581968,524.72666 765.487512,543.624254 C764.04947,562.521813 760.57996,582.169068 755.438415,601.644563 C751.484484,621.21374 745.108443,640.595555 736.404077,658.540582 C728.027877,676.095157 716.776441,691.353978 702.899832,702.552228 C688.992009,711.845109 672.380908,715.765526 653.550978,713.064046 C634.736728,707.816866 615.641316,697.07223 597.35856,682.813572 C579.232076,668.195703 562.121364,651.422556 547.120252,633.868476 C532.572295,616.985951 520.462097,599.260013 511.883504,581.284116 C504.164364,563.636175 500.336251,545.191643 501.27424,526.497127 C503.306086,507.818205 509.885226,490.622877 519.933409,475.770144 C530.591022,461.182901 544.342633,449.344324 560.125618,441.113413 C576.096113,433.335415 593.894837,429.133853 612.537315,428.727396 C631.226681,427.899257 650.72857,429.788597 670.011634,434.208024" id="Path" stroke="url(#linearGradient-19)" opacity="0.74" transform="translate(634.751128, 571.219496) rotate(199.160000) translate(-634.751128, -571.219496) "></path>
                <path d="M667.078301,456.311786 C683.813669,458.449523 698.611202,462.227394 710.95528,467.270623 C723.20576,470.955083 732.940198,476.607726 739.78357,484.197361 C746.64263,491.255975 750.860571,500.860661 752.281156,512.8084 C754.248668,524.662366 754.012593,539.062353 751.447963,555.664773 C750.133426,572.267048 746.834283,589.587991 741.941297,606.690465 C737.954628,623.792834 731.858466,640.567467 723.809209,655.842983 C716.088154,670.665534 705.976553,683.286201 693.72459,692.299319 C681.472804,699.797474 666.971375,702.813475 650.642328,700.316474 C634.313508,695.882818 617.797716,686.810586 602.032344,674.614631 C586.423285,661.981349 571.736418,647.223887 558.9248,631.529116 C546.503791,616.209135 536.23929,600.061139 529.053161,583.756602 C522.538929,567.686259 519.353124,551.146982 520.276981,534.763408 C522.060277,518.379732 527.734294,503.65113 536.423894,491.202429 C545.629141,478.894231 557.553047,469.084624 571.273601,462.367206 C585.197273,455.837183 600.745718,452.290042 616.996971,451.89769 C633.342037,451.021163 650.343127,452.502905 667.078301,456.311786" id="Path" stroke="url(#linearGradient-20)" opacity="0.62" transform="translate(636.853940, 576.415108) rotate(209.280000) translate(-636.853940, -576.415108) "></path>
                <path d="M662.836067,478.815365 C677.054682,480.79617 689.616704,484.354828 700.115948,489.13218 C710.552892,492.894306 718.911342,498.328082 724.910063,505.33985 C730.955748,511.898656 734.844743,520.488365 736.38957,530.968445 C738.371931,541.323485 738.416338,553.787481 736.335343,568.094946 C735.144988,582.402234 732.095123,597.22532 727.576533,611.783172 C723.714221,626.2628 718.039466,640.289833 710.739968,652.864616 C703.721819,664.970772 694.750899,675.109313 684.108693,682.124375 C673.482334,688.014861 661.028544,690.235232 647.138112,687.988838 C633.247959,684.336729 619.28044,676.842348 606.03221,666.692586 C592.877825,656.074233 580.598848,643.472087 569.94509,629.916858 C559.603809,616.502137 551.122101,602.25924 545.249833,587.922111 C539.877551,573.709835 537.317868,559.247098 538.195677,545.142919 C539.714119,531.054232 544.513543,518.620516 551.859471,508.294867 C559.596021,498.015999 569.691553,489.938949 581.317856,484.423122 C593.131653,478.954115 606.366871,475.90578 620.210965,475.434468 C634.133275,474.510188 648.602067,475.616277 662.836067,478.815365" id="Path" stroke="url(#linearGradient-21)" opacity="0.88" transform="translate(637.956225, 581.984445) rotate(219.400000) translate(-637.956225, -581.984445) "></path>
                <path d="M657.493855,501.576397 C669.242669,503.338501 679.647439,506.584876 688.364529,510.956344 C700.596557,517.154494 716.278311,535.848018 719.60296,548.67145 C721.491191,557.605789 721.738485,568.16506 720.094915,580.13064 C719.060681,592.096065 716.354597,604.374322 712.304948,616.262414 C708.739662,628.072281 703.612114,639.335834 697.172495,649.240754 C690.951703,658.786351 683.200203,666.582863 674.152553,671.849214 C665.136359,676.3033 654.714743,677.852366 643.231585,675.902751 C631.717426,672.984685 620.26655,666.97378 609.456813,658.791488 C598.725299,650.203048 588.775432,639.864933 580.216338,628.604866 C571.891604,617.344738 565.098223,605.303205 560.460981,593.167401 C556.183079,581.078367 554.201948,568.832544 555.001778,557.039002 C556.254704,545.245345 560.194572,534.981794 566.196349,526.529675 C572.510602,518.093096 580.761768,511.483601 590.293575,506.951282 C600.012886,502.356433 610.887877,499.71383 622.30918,499.14859 C633.793078,498.192826 645.729631,498.970801 657.493855,501.576397" id="Path" stroke="url(#linearGradient-22)" opacity="0.5" transform="translate(638.007807, 587.743123) rotate(229.520000) translate(-638.007807, -587.743123) "></path>
                <path d="M650.797345,524.789514 C669.449977,527.174427 683.961107,535.028132 692.503446,546.398415 C701.342911,556.706333 705.072356,572.20212 702.239297,591.417735 C700.92162,610.648548 693.698582,630.037232 682.664859,645.099743 C672.209471,659.084187 656.865968,666.868143 638.572716,664.264424 C620.264524,659.223707 602.583735,645.247141 589.293914,627.566978 C576.597815,609.652321 569.104766,589.064878 570.172404,570.115328 C572.474231,551.134189 582.960842,537.227845 597.804293,529.912683 C613.116529,522.206845 632.145339,520.170682 650.797345,524.789514" id="Path" stroke="url(#linearGradient-23)" opacity="0.3" transform="translate(636.621725, 593.552448) rotate(239.640000) translate(-636.621725, -593.552448) "></path>
                <path d="M644.14572,547.282624 C658.016609,549.325526 669.043267,555.837474 675.773421,565.053424 C682.722437,573.644381 685.874562,585.892227 683.933647,600.344344 C682.836269,614.78061 677.037099,628.749448 668.333393,639.141327 C659.989143,648.892551 648.147029,654.067084 634.479247,651.89914 C620.796216,648.356346 607.911611,638.329649 598.417544,625.411715 C589.251586,612.243719 583.944614,596.856164 584.90136,582.57617 C586.561055,568.280363 594.218206,557.701287 605.091974,551.948953 C616.26263,545.868449 630.259553,543.974235 644.14572,547.282624" id="Path" stroke="url(#linearGradient-24)" opacity="0.6" transform="translate(634.644184, 599.029483) rotate(249.760000) translate(-634.644184, -599.029483) "></path>
                <path d="M636.804755,569.629017 C655.188469,572.077908 666.96206,587.824954 664.271085,607.137738 C663.001502,626.418948 648.331161,641.922029 630.134903,639.379347 C611.923571,634.446084 597.105336,613.527945 598.249931,594.387386 C600.675336,575.23091 618.405937,564.914543 636.804755,569.629017" id="Path" stroke="url(#linearGradient-25)" opacity="0.25" transform="translate(631.420457, 604.074063) rotate(259.880000) translate(-631.420457, -604.074063) "></path>
            </g>
        </g>
    </g>
</svg>